<svg width="168" height="48" viewBox="0 0 168 48" fill="none" xmlns="http://www.w3.org/2000/svg">
<rect x="1.5" y="1.5" width="47" height="45" fill="white" stroke="#FFC740" stroke-width="3"/>
<rect x="22" y="12" width="64" height="26" fill="white"/>
<path d="M35.3711 29.5234C35.3711 28.8594 35.1367 28.3516 34.668 28C34.1992 27.6406 33.3555 27.2656 32.1367 26.875C30.918 26.4766 29.9531 26.0859 29.2422 25.7031C27.3047 24.6563 26.3359 23.2461 26.3359 21.4727C26.3359 20.5508 26.5938 19.7305 27.1094 19.0117C27.6328 18.2852 28.3789 17.7187 29.3477 17.3125C30.3242 16.9063 31.418 16.7031 32.6289 16.7031C33.8477 16.7031 34.9336 16.9258 35.8867 17.3711C36.8398 17.8086 37.5781 18.4297 38.1016 19.2344C38.6328 20.0391 38.8984 20.9531 38.8984 21.9766H35.3828C35.3828 21.1953 35.1367 20.5898 34.6445 20.1602C34.1523 19.7227 33.4609 19.5039 32.5703 19.5039C31.7109 19.5039 31.043 19.6875 30.5664 20.0547C30.0898 20.4141 29.8516 20.8906 29.8516 21.4844C29.8516 22.0391 30.1289 22.5039 30.6836 22.8789C31.2461 23.2539 32.0703 23.6055 33.1562 23.9336C35.1563 24.5352 36.6133 25.2812 37.5273 26.1719C38.4414 27.0625 38.8984 28.1719 38.8984 29.5C38.8984 30.9766 38.3398 32.1367 37.2227 32.9805C36.1055 33.8164 34.6016 34.2344 32.7109 34.2344C31.3984 34.2344 30.2031 33.9961 29.125 33.5195C28.0469 33.0352 27.2227 32.375 26.6523 31.5391C26.0898 30.7031 25.8086 29.7344 25.8086 28.6328H29.3359C29.3359 30.5156 30.4609 31.457 32.7109 31.457C33.5469 31.457 34.1992 31.2891 34.668 30.9531C35.1367 30.6094 35.3711 30.1328 35.3711 29.5234ZM54.2031 16.9375V28.1758C54.2031 30.043 53.6172 31.5195 52.4453 32.6055C51.2813 33.6914 49.6875 34.2344 47.6641 34.2344C45.6719 34.2344 44.0898 33.707 42.918 32.6523C41.7461 31.5977 41.1484 30.1484 41.125 28.3047V16.9375H44.6406V28.1992C44.6406 29.3164 44.9062 30.1328 45.4375 30.6484C45.9766 31.1562 46.7187 31.4102 47.6641 31.4102C49.6406 31.4102 50.6445 30.3711 50.6758 28.293V16.9375H54.2031ZM60.6016 27.9883V34H57.0859V16.9375H63.7422C65.0234 16.9375 66.1484 17.1719 67.1172 17.6406C68.0938 18.1094 68.8438 18.7773 69.3672 19.6445C69.8906 20.5039 70.1523 21.4844 70.1523 22.5859C70.1523 24.2578 69.5781 25.5781 68.4297 26.5469C67.2891 27.5078 65.707 27.9883 63.6836 27.9883H60.6016ZM60.6016 25.1406H63.7422C64.6719 25.1406 65.3789 24.9219 65.8633 24.4844C66.3555 24.0469 66.6016 23.4219 66.6016 22.6094C66.6016 21.7734 66.3555 21.0977 65.8633 20.582C65.3711 20.0664 64.6914 19.8008 63.8242 19.7852H60.6016V25.1406ZM82.8438 26.6055H76.0938V31.1758H84.0156V34H72.5781V16.9375H83.9922V19.7852H76.0938V23.8516H82.8438V26.6055ZM92.3945 27.7539H89.5938V34H86.0781V16.9375H92.418C94.4336 16.9375 95.9883 17.3867 97.082 18.2852C98.1758 19.1836 98.7227 20.4531 98.7227 22.0938C98.7227 23.2578 98.4688 24.2305 97.9609 25.0117C97.4609 25.7852 96.6992 26.4023 95.6758 26.8633L99.3672 33.8359V34H95.5938L92.3945 27.7539ZM89.5938 24.9062H92.4297C93.3125 24.9062 93.9961 24.6836 94.4805 24.2383C94.9648 23.7852 95.207 23.1641 95.207 22.375C95.207 21.5703 94.9766 20.9375 94.5156 20.4766C94.0625 20.0156 93.3633 19.7852 92.418 19.7852H89.5938V24.9062ZM110.898 31.1758H118.363V34H107.383V16.9375H110.898V31.1758ZM133.656 25.8555C133.656 27.5352 133.359 29.0078 132.766 30.2734C132.172 31.5391 131.32 32.5156 130.211 33.2031C129.109 33.8906 127.844 34.2344 126.414 34.2344C125 34.2344 123.738 33.8945 122.629 33.2148C121.52 32.5352 120.66 31.5664 120.051 30.3086C119.441 29.043 119.133 27.5898 119.125 25.9492V25.1055C119.125 23.4258 119.426 21.9492 120.027 20.6758C120.637 19.3945 121.492 18.4141 122.594 17.7344C123.703 17.0469 124.969 16.7031 126.391 16.7031C127.812 16.7031 129.074 17.0469 130.176 17.7344C131.285 18.4141 132.141 19.3945 132.742 20.6758C133.352 21.9492 133.656 23.4219 133.656 25.0938V25.8555ZM130.094 25.082C130.094 23.293 129.773 21.9336 129.133 21.0039C128.492 20.0742 127.578 19.6094 126.391 19.6094C125.211 19.6094 124.301 20.0703 123.66 20.9922C123.02 21.9062 122.695 23.25 122.688 25.0234V25.8555C122.688 27.5977 123.008 28.9492 123.648 29.9102C124.289 30.8711 125.211 31.3516 126.414 31.3516C127.594 31.3516 128.5 30.8906 129.133 29.9688C129.766 29.0391 130.086 27.6875 130.094 25.9141V25.082ZM149.711 31.8438C149.078 32.6016 148.184 33.1914 147.027 33.6133C145.871 34.0273 144.59 34.2344 143.184 34.2344C141.707 34.2344 140.41 33.9141 139.293 33.2734C138.184 32.625 137.324 31.6875 136.715 30.4609C136.113 29.2344 135.805 27.793 135.789 26.1367V24.9766C135.789 23.2734 136.074 21.8008 136.645 20.5586C137.223 19.3086 138.051 18.3555 139.129 17.6992C140.215 17.0352 141.484 16.7031 142.938 16.7031C144.961 16.7031 146.543 17.1875 147.684 18.1562C148.824 19.1172 149.5 20.5195 149.711 22.3633H146.289C146.133 21.3867 145.785 20.6719 145.246 20.2188C144.715 19.7656 143.98 19.5391 143.043 19.5391C141.848 19.5391 140.937 19.9883 140.312 20.8867C139.687 21.7852 139.371 23.1211 139.363 24.8945V25.9844C139.363 27.7734 139.703 29.125 140.383 30.0391C141.062 30.9531 142.059 31.4102 143.371 31.4102C144.691 31.4102 145.633 31.1289 146.195 30.5664V27.625H142.996V25.0352H149.711V31.8438ZM166.586 25.8555C166.586 27.5352 166.289 29.0078 165.695 30.2734C165.102 31.5391 164.25 32.5156 163.141 33.2031C162.039 33.8906 160.773 34.2344 159.344 34.2344C157.93 34.2344 156.668 33.8945 155.559 33.2148C154.449 32.5352 153.59 31.5664 152.98 30.3086C152.371 29.043 152.062 27.5898 152.055 25.9492V25.1055C152.055 23.4258 152.355 21.9492 152.957 20.6758C153.566 19.3945 154.422 18.4141 155.523 17.7344C156.633 17.0469 157.898 16.7031 159.32 16.7031C160.742 16.7031 162.004 17.0469 163.105 17.7344C164.215 18.4141 165.07 19.3945 165.672 20.6758C166.281 21.9492 166.586 23.4219 166.586 25.0938V25.8555ZM163.023 25.082C163.023 23.293 162.703 21.9336 162.062 21.0039C161.422 20.0742 160.508 19.6094 159.32 19.6094C158.141 19.6094 157.23 20.0703 156.59 20.9922C155.949 21.9062 155.625 23.25 155.617 25.0234V25.8555C155.617 27.5977 155.938 28.9492 156.578 29.9102C157.219 30.8711 158.141 31.3516 159.344 31.3516C160.523 31.3516 161.43 30.8906 162.062 29.9688C162.695 29.0391 163.016 27.6875 163.023 25.9141V25.082Z" fill="black"/>
</svg>
